<?xml version="1.0" standalone="no"?>
<!DOCTYPE svg PUBLIC "-//W3C//DTD SVG 20010904//EN"
 "http://www.w3.org/TR/2001/REC-SVG-20010904/DTD/svg10.dtd">
<svg version="1.0" xmlns="http://www.w3.org/2000/svg"
 width="1024.000000pt" height="1024.000000pt" viewBox="0 0 1024.000000 1024.000000"
 preserveAspectRatio="xMidYMid meet">

<g transform="translate(0.000000,1024.000000) scale(0.100000,-0.100000)"
fill="#000000" stroke="none">
<path d="M4940 8135 c-289 -38 -623 -132 -863 -244 -862 -404 -1512 -1203
-1691 -2081 -53 -263 -61 -338 -60 -620 0 -438 54 -735 199 -1096 274 -679
787 -1215 1480 -1545 250 -119 484 -192 790 -245 132 -24 185 -27 437 -31 317
-6 403 1 645 48 188 37 308 71 483 138 451 174 824 423 1128 755 478 519 732
1142 767 1881 14 300 -48 720 -151 1021 -154 450 -437 895 -762 1202 -460 432
-1016 709 -1617 804 -169 27 -624 34 -785 13z m656 -589 c38 -38 46 -89 19
-130 -30 -46 -57 -49 -312 -41 l-237 7 -28 28 c-39 40 -38 88 3 135 l31 35
245 0 245 0 34 -34z m-1066 -37 c55 -25 95 -62 123 -114 l22 -40 3 -897 2
-898 -90 0 c-88 0 -91 -1 -125 -32 -45 -41 -55 -90 -30 -142 28 -59 55 -70
174 -76 l106 -5 3 -272 c1 -179 -1 -273 -8 -273 -5 0 -46 26 -89 59 -81 60
-245 145 -337 175 -28 9 -59 22 -68 29 -15 11 -17 97 -17 1166 l0 1155 26 53
c56 114 191 164 305 112z m1646 -133 c114 -55 269 -150 312 -189 59 -57 37
-151 -43 -177 -45 -15 -65 -8 -150 50 -38 26 -122 75 -185 109 -144 77 -160
92 -160 145 1 44 11 62 50 89 38 27 79 20 176 -27z m-761 -377 c124 -15 213
-39 365 -99 156 -62 200 -96 200 -156 0 -46 -20 -78 -61 -99 -32 -17 -67 -12
-114 15 -84 51 -327 120 -490 141 -87 10 -103 16 -127 40 -31 31 -37 77 -14
118 29 52 78 60 241 40z m-1619 -63 c55 -55 49 -83 -46 -200 -64 -80 -156
-215 -219 -323 -47 -82 -84 -108 -136 -99 -40 8 -82 48 -90 87 -5 24 2 44 36
102 85 145 241 368 303 435 25 27 37 32 74 32 37 0 50 -6 78 -34z m3048 -235
c56 -24 113 -82 137 -139 19 -44 20 -74 17 -1181 l-4 -1136 -26 -91 c-63 -214
-169 -400 -316 -556 -207 -217 -441 -328 -692 -328 -300 0 -574 169 -706 435
-29 60 -58 142 -84 245 -65 251 -89 314 -166 441 l-34 55 2 900 3 899 27 50
c30 58 58 85 113 113 61 30 104 34 164 17 66 -20 127 -74 157 -140 l24 -50 0
-840 c0 -931 -1 -905 66 -1042 82 -165 268 -280 439 -271 36 1 65 1 65 -2 0
-2 -19 -42 -42 -88 -62 -127 -65 -224 -7 -282 24 -23 39 -30 71 -30 74 0 114
40 145 142 24 84 66 158 137 245 108 132 255 226 405 258 147 32 161 37 186
67 55 65 13 178 -71 194 -59 11 -244 -30 -367 -81 -17 -7 -17 40 -15 1001 l3
1009 27 50 c46 83 86 120 160 147 61 21 117 18 182 -11z m-788 -446 c45 -18
102 -72 127 -119 l22 -41 0 -775 0 -775 -23 -51 c-44 -97 -139 -164 -231 -164
-48 0 -133 43 -167 83 -15 18 -37 52 -48 77 -21 44 -21 55 -21 805 0 838 -1
821 62 895 71 83 177 108 279 65z m1529 -187 c54 -42 119 -217 170 -461 34
-159 33 -200 -4 -238 -23 -23 -38 -29 -71 -29 -59 0 -94 37 -109 116 -30 154
-57 258 -93 359 -22 61 -43 124 -47 140 -12 46 5 93 42 115 42 26 78 25 112
-2z m-4076 -109 c172 -59 339 -235 409 -431 25 -69 26 -86 32 -338 7 -291 11
-314 69 -363 19 -15 73 -39 131 -57 327 -101 577 -321 696 -614 19 -47 50
-152 69 -234 48 -208 86 -305 166 -424 163 -240 405 -407 669 -463 278 -58
580 6 835 178 113 75 264 219 353 336 l57 74 3 -179 3 -179 -48 -44 c-264
-243 -674 -448 -1077 -540 -348 -80 -765 -82 -1116 -5 -152 34 -373 108 -485
164 l-90 45 -3 133 -3 133 60 -41 c157 -107 464 -206 676 -217 82 -5 107 -3
133 11 80 41 81 160 1 201 -17 9 -83 25 -147 36 -396 65 -715 247 -965 547
-170 204 -269 402 -339 677 -30 118 -31 125 -38 465 -8 388 -8 389 -88 545
-57 110 -173 233 -269 283 -72 38 -87 60 -80 112 23 174 191 256 386 189z
m-565 -629 c44 -16 66 -65 66 -147 0 -40 -5 -84 -12 -98 -23 -51 -111 -72
-154 -37 -36 28 -44 57 -44 147 0 82 1 88 29 116 31 31 68 37 115 19z m4525
-46 c32 -23 51 -73 51 -134 0 -84 -36 -129 -103 -130 -49 0 -90 21 -105 55
-28 61 -7 190 35 214 27 16 96 13 122 -5z m250 -488 c31 -16 51 -54 51 -94 0
-43 -56 -272 -94 -385 -58 -174 -212 -477 -280 -550 -45 -49 -113 -44 -156 11
-31 39 -25 75 29 161 119 189 200 384 262 630 22 86 44 169 51 184 20 50 83
70 137 43z m-4688 -349 c29 -19 43 -45 95 -172 78 -194 119 -274 215 -421 44
-66 79 -130 79 -142 0 -82 -99 -132 -163 -82 -34 27 -120 150 -186 264 -51 90
-155 326 -186 424 -21 63 -9 104 39 133 41 25 66 24 107 -4z m811 -1024 l78
-82 0 -160 c0 -89 -2 -161 -4 -161 -3 0 -51 37 -107 83 -56 45 -110 88 -120
96 -17 12 -19 30 -19 213 l0 200 47 -53 c27 -30 83 -91 125 -136z"/>
</g>
</svg>
